<svg xmlns="http://www.w3.org/2000/svg" xmlns:xlink="http://www.w3.org/1999/xlink" width="271.317" height="62" viewBox="0 0 271.317 62">
  <defs>
    <linearGradient id="linear-gradient" x1="0.003" y1="0.5" x2="1.001" y2="0.5" gradientUnits="objectBoundingBox">
      <stop offset="0" stop-color="#e96f0b"/>
      <stop offset="1" stop-color="#f37901"/>
    </linearGradient>
  </defs>
  <g id="google_analytics-official" transform="translate(82.258 -97.45)">
    <g id="Group_3" data-name="Group 3" transform="translate(-1.622 118.656)">
      <path id="Path_14" data-name="Path 14" d="M155.371,127l3.242,8.511h-6.282L155.37,127Zm-1.216-2.83-7.092,18.644H149.7l1.823-5.065h7.9l1.823,5.065h2.635l-7.092-18.644h-2.635Zm38.3,18.644h2.432V124.173h-2.432Zm-24.924-10.949a5.17,5.17,0,0,1,4.052-2.229c3.242,0,4.864,2.229,4.864,5.471V143h-2.432v-7.489c0-2.635-1.418-3.648-3.242-3.648-2.026,0-3.445,2.026-3.445,3.851v7.092h-2.432V129.85h2.432l.2,2.026Zm10.949,7.091c0-2.83,2.635-4.458,5.674-4.458a5.53,5.53,0,0,1,3.445.81v-.405a3.028,3.028,0,0,0-3.242-3.039,2.965,2.965,0,0,0-3.039,1.823l-2.229-1.013c.405-1.216,2.026-3.039,5.268-3.039,3.039,0,5.674,1.823,5.674,5.471v7.7H187.8v-1.823h-.2a4.879,4.879,0,0,1-4.255,2.229c-2.635,0-4.864-1.621-4.864-4.255m9.118-1.621a5.091,5.091,0,0,0-3.039-.81c-2.432,0-3.445,1.418-3.445,2.432,0,1.418,1.418,2.026,2.635,2.026a3.952,3.952,0,0,0,3.851-3.648" transform="translate(-56.889 -121.75)" fill="#757575"/>
      <path id="Path_15" data-name="Path 15" d="M215.127,150.205l2.83-6.687-5.065-11.754h2.432l3.851,8.916,3.851-8.916h2.432l-7.9,18.44H215.13Zm35.663-14.184a3.845,3.845,0,0,0-3.445-2.635c-2.026,0-3.851,1.823-3.851,4.458s1.823,4.458,3.851,4.458a3.954,3.954,0,0,0,3.445-2.432l2.026,1.216a5.95,5.95,0,0,1-5.471,3.648c-3.445,0-6.282-3.039-6.282-6.89,0-4.052,2.83-6.89,6.282-6.89a5.95,5.95,0,0,1,5.471,3.648l-2.026,1.418Z" transform="translate(-73.686 -123.48)" fill="#757575" fill-rule="evenodd"/>
      <path id="Path_16" data-name="Path 16" d="M267.557,145.015c3.242,0,4.864-1.823,4.864-4.052,0-4.864-7.092-3.039-7.092-5.884,0-1.013.81-1.621,2.229-1.621A4.062,4.062,0,0,1,271,135.079l1.418-1.418a7.528,7.528,0,0,0-5.065-2.432c-3.039,0-4.66,1.823-4.66,4.052,0,4.661,7.3,3.039,7.3,5.471,0,1.216-.81,2.026-2.432,2.026s-2.432-1.013-3.242-2.026l-1.823,1.418c1.216,1.216,3.039,2.83,5.065,2.83Zm-23.1-.406h2.432v-12.96h-2.432Z" transform="translate(-81.74 -123.55)" fill="#757575"/>
      <path id="Path_17" data-name="Path 17" d="M242,123.35a1.621,1.621,0,0,1,0,3.242,1.621,1.621,0,0,1,0-3.242Zm-3.445,17.223.405,1.823h-2.432c-2.229,0-3.242-1.621-3.242-4.052v-6.282h-2.432v-2.432h2.432V125.78h2.432v3.851h2.83v2.432h-2.83v6.687c0,1.823,1.418,1.823,2.83,1.823Z" transform="translate(-78.269 -121.54)" fill="#757575" fill-rule="evenodd"/>
      <path id="Path_18" data-name="Path 18" d="M36.949,130.834v3.039h7.092a6.14,6.14,0,0,1-1.621,3.648,7.279,7.279,0,0,1-5.471,2.229,7.741,7.741,0,0,1-7.7-7.9,7.746,7.746,0,0,1,12.969-5.869l2.026-2.026a10.537,10.537,0,0,0-7.3-3.039,10.743,10.743,0,1,0,0,21.481,9.7,9.7,0,0,0,10.132-9.929,5.03,5.03,0,0,0-.2-1.823h-9.93ZM54.984,128.4a6.89,6.89,0,0,0,0,13.78,6.83,6.83,0,0,0,6.89-6.89A6.71,6.71,0,0,0,54.984,128.4Zm0,11.145a4.277,4.277,0,0,1,0-8.511,4.277,4.277,0,0,1,0,8.511ZM88.21,129.82a5.258,5.258,0,0,0-3.851-1.621,6.9,6.9,0,0,0,0,13.78,4.775,4.775,0,0,0,3.648-1.621h.2v1.013c0,2.635-1.418,4.052-3.648,4.052a3.879,3.879,0,0,1-3.445-2.432L78.482,144a6.681,6.681,0,0,0,6.079,4.052c3.648,0,6.687-2.026,6.687-7.3V128.2h-2.83v1.621Zm-3.445,9.726c-2.026,0-3.648-1.823-3.648-4.255s1.621-4.255,3.648-4.255,3.648,1.823,3.648,4.255S86.792,139.546,84.765,139.546ZM69.972,128.4a6.89,6.89,0,1,0,0,13.78,6.83,6.83,0,0,0,6.89-6.89A6.6,6.6,0,0,0,69.972,128.4Zm0,11.145a4.277,4.277,0,0,1,0-8.511,4.277,4.277,0,0,1,0,8.511Zm23.506-18.439h3.039v21.074H93.478Zm11.348,18.441a3.923,3.923,0,0,1-3.445-2.026l9.321-3.851-.405-.81c-.608-1.621-2.432-4.458-5.884-4.458-3.648,0-6.485,2.83-6.485,6.89a6.83,6.83,0,0,0,6.89,6.89,7.406,7.406,0,0,0,5.884-3.039l-2.432-1.621a3.922,3.922,0,0,1-3.445,2.026Zm-.2-8.511a2.716,2.716,0,0,1,2.635,1.621l-6.282,2.635C100.976,132.254,103,131.038,104.623,131.038Z" transform="translate(-26 -120.92)" fill="#757575"/>
    </g>
    <g id="Group_4" data-name="Group 4" transform="translate(-82.258 97.45)">
      <path id="Path_19" data-name="Path 19" d="M119.339,53.126H96.392a5.1,5.1,0,0,1-5.1-5.1V37.021a5.1,5.1,0,0,1,5.1-5.1h14.494v-16.1a5.1,5.1,0,0,1,5.1-5.1h16.1V52.992H119.339Z" transform="translate(-91.292 8.874)" fill="#ffc517" fill-rule="evenodd"/>
      <path id="Path_20" data-name="Path 20" d="M190.1,33H174V-23.9a5.1,5.1,0,0,1,5.1-5.1h11a5.1,5.1,0,0,1,5.1,5.1V27.9A5.278,5.278,0,0,1,190.1,33Z" transform="translate(-133.199 29)" fill="#f57e02" fill-rule="evenodd"/>
      <path id="Path_21" data-name="Path 21" d="M301.96,84.591v16.1a5.1,5.1,0,0,1-5.1,5.1h-16.1V63.388Z" transform="translate(-240.094 -43.795)" fill-rule="evenodd" fill="url(#linear-gradient)"/>
    </g>
  </g>
</svg>
