<svg xmlns="http://www.w3.org/2000/svg" width="93.355" height="68.746" viewBox="0 0 93.355 68.746">
  <g id="search-analytics-svgrepo-com" transform="translate(0 -53.696)">
    <path id="Path_22" data-name="Path 22" d="M188.408,125.531l-20.371-20.372a24.239,24.239,0,0,0-19.851-38.146c-.475,0-.948.015-1.418.042v7.025c.47-.038.942-.062,1.418-.062A17.234,17.234,0,1,1,136,103.438a17.313,17.313,0,0,1-2.728-3.543,6.211,6.211,0,0,1-8.289-1.954c-.024.036-.05.07-.075.106A24.246,24.246,0,0,0,162.092,111.1l20.373,20.372a4.2,4.2,0,1,0,5.943-5.945Z" transform="translate(-96.285 -10.265)" fill="#202440"/>
    <path id="Path_23" data-name="Path 23" d="M93.3,135.172a2.767,2.767,0,0,0-2.766,2.766v9.106a2.766,2.766,0,1,0,5.532,0v-9.106A2.766,2.766,0,0,0,93.3,135.172Z" transform="translate(-69.786 -62.806)" fill="#48bab4"/>
    <path id="Path_24" data-name="Path 24" d="M2.766,135.172A2.767,2.767,0,0,0,0,137.938v9.106a2.766,2.766,0,1,0,5.532,0v-9.106A2.765,2.765,0,0,0,2.766,135.172Z" transform="translate(0 -62.806)" fill="#48bab4"/>
    <path id="Path_25" data-name="Path 25" d="M48.03,85.381a2.767,2.767,0,0,0-2.766,2.766v20.515a2.766,2.766,0,1,0,5.532,0V88.147A2.766,2.766,0,0,0,48.03,85.381Z" transform="translate(-34.892 -24.424)" fill="#48bab4"/>
    <path id="Path_26" data-name="Path 26" d="M183.829,87a2.767,2.767,0,0,0,2.766-2.766V56.462a2.767,2.767,0,0,0-5.534,0V84.238A2.767,2.767,0,0,0,183.829,87Z" transform="translate(-139.57)" fill="#48bab4"/>
    <path id="Path_27" data-name="Path 27" d="M138.561,111.429a2.766,2.766,0,0,0,2.766-2.766V88.147a2.766,2.766,0,1,0-5.532,0v20.515A2.767,2.767,0,0,0,138.561,111.429Z" transform="translate(-104.677 -24.424)" fill="#48bab4"/>
  </g>
</svg>
