<svg xmlns="http://www.w3.org/2000/svg" xmlns:xlink="http://www.w3.org/1999/xlink" width="110" height="110" viewBox="0 0 110 110">
  <defs>
    <filter id="Ellipse_8" x="0" y="0" width="110" height="110" filterUnits="userSpaceOnUse">
      <feOffset dy="13" input="SourceAlpha"/>
      <feGaussianBlur stdDeviation="10" result="blur"/>
      <feFlood flood-color="#5b2dde" flood-opacity="0.149"/>
      <feComposite operator="in" in2="blur"/>
      <feComposite in="SourceGraphic"/>
    </filter>
  </defs>
  <g id="Group_1343" data-name="Group 1343" transform="translate(179 17)">
    <g transform="matrix(1, 0, 0, 1, -179, -17)" filter="url(#Ellipse_8)">
      <circle id="Ellipse_8-2" data-name="Ellipse 8" cx="25" cy="25" r="25" transform="translate(30 17)" fill="#48bab4"/>
    </g>
    <g id="arrow-pointing-to-right" transform="translate(-137.736 15.094)">
      <path id="Path_59" data-name="Path 59" d="M27.58,50.618,19.259,42.3a1.3,1.3,0,0,0-1.839,1.839l6.1,6.1H1.3a1.3,1.3,0,0,0,0,2.6H23.522l-6.1,6.1a1.3,1.3,0,0,0,1.839,1.839l8.321-8.321A1.3,1.3,0,0,0,27.58,50.618Z" transform="translate(0 -41.916)" fill="#fff"/>
    </g>
  </g>
</svg>
